HIERARCHY
ROOT reference
{
  OFFSET 0 0 0
  CHANNELS 6 Xposition Yposition Zposition Zrotation Xrotation Yrotation
  JOINT Hips
  {
    OFFSET 340.57 87.5694 214.797
    CHANNELS 3 Zrotation Xrotation Yrotation
    JOINT RightUpLeg
    {
      OFFSET -9.35418 -1.55218 -0.019184
      CHANNELS 3 Zrotation Xrotation Yrotation
      JOINT RightLeg
      {
        OFFSET -0.0482219 -41.8948 0.0725956
        CHANNELS 3 Zrotation Xrotation Yrotation
        JOINT RightFoot
        {
          OFFSET -1.00159 -42.3965 -1.97064
          CHANNELS 3 Zrotation Xrotation Yrotation
          End Site
          {
            OFFSET 0 -7.69 17.5
          }
        }
      }
    }
    JOINT LeftUpLeg
    {
      OFFSET 9.33628 -1.64535 -0.0795185
      CHANNELS 3 Zrotation Xrotation Yrotation
      JOINT LeftLeg
      {
        OFFSET 0.124871 -41.8725 -0.08325
        CHANNELS 3 Zrotation Xrotation Yrotation
        JOINT LeftFoot
        {
          OFFSET 0.728222 -40.8097 2.1196
          CHANNELS 3 Zrotation Xrotation Yrotation
          End Site
          {
            OFFSET 0 -7.69 17.5
          }
        }
      }
    }
    JOINT Spine
    {
      OFFSET -0.0135102 14.2943 0.0647361
      CHANNELS 3 Zrotation Xrotation Yrotation
      JOINT Spine1
      {
        OFFSET 0.0181502 9.72385 0.0148045
        CHANNELS 3 Zrotation Xrotation Yrotation
        JOINT Spine2
        {
          OFFSET 0.0557859 10.1166 -0.00979693
          CHANNELS 3 Zrotation Xrotation Yrotation
          JOINT Spine3
          {
            OFFSET 0.0359868 9.71757 0.00306838
            CHANNELS 3 Zrotation Xrotation Yrotation
            JOINT Neck
            {
              OFFSET 0.139197 10.3803 0.0501204
              CHANNELS 3 Zrotation Xrotation Yrotation
              JOINT Head
              {
                OFFSET 0.148012 9.47645 -0.000545472
                CHANNELS 3 Zrotation Xrotation Yrotation
                End Site
                {
                  OFFSET 0 15.95 0
                }
              }
            }
            JOINT RightShoulder
            {
              OFFSET -3.16276 6.92807 0.0312834
              CHANNELS 3 Zrotation Xrotation Yrotation
              JOINT RightArm
              {
                OFFSET -12.7681 0.0492996 0.0890957
                CHANNELS 3 Zrotation Xrotation Yrotation
                JOINT RightForeArm
                {
                  OFFSET -26.4761 -0.090776 0.147076
                  CHANNELS 3 Zrotation Xrotation Yrotation
                  JOINT RightHand
                  {
                    OFFSET -25.9655 0.0607057 -0.248467
                    CHANNELS 3 Zrotation Xrotation Yrotation
                    JOINT RightHandThumb1
                    {
                      OFFSET -2.48905 0.190105 3.12053
                      CHANNELS 3 Zrotation Xrotation Yrotation
                      JOINT RightHandThumb2
                      {
                        OFFSET -3.68274 0 0
                        CHANNELS 3 Zrotation Xrotation Yrotation
                        JOINT RightHandThumb3
                        {
                          OFFSET -2.55832 0 0
                          CHANNELS 3 Zrotation Xrotation Yrotation
                          End Site
                          {
                            OFFSET -2.194 0 0
                          }
                        }
                      }
                    }
                    JOINT RightInHandIndex
                    {
                      OFFSET -3.22368 0.508421 1.97842
                      CHANNELS 3 Zrotation Xrotation Yrotation
                      JOINT RightHandIndex1
                      {
                        OFFSET -5.21684 -0.091368 0.999158
                        CHANNELS 3 Zrotation Xrotation Yrotation
                        JOINT RightHandIndex2
                        {
                          OFFSET -3.61937 0 0
                          CHANNELS 3 Zrotation Xrotation Yrotation
                          JOINT RightHandIndex3
                          {
                            OFFSET -2.0521 0 0
                            CHANNELS 3 Zrotation Xrotation Yrotation
                            End Site
                            {
                              OFFSET -1.805 0 0
                            }
                          }
                        }
                      }
                    }
                    JOINT RightInHandMiddle
                    {
                      OFFSET -3.38211 0.517263 0.756737
                      CHANNELS 3 Zrotation Xrotation Yrotation
                      JOINT RightHandMiddle1
                      {
                        OFFSET -5.17411 -0.084 0.313895
                        CHANNELS 3 Zrotation Xrotation Yrotation
                        JOINT RightHandMiddle2
                        {
                          OFFSET -3.94947 0 0
                          CHANNELS 3 Zrotation Xrotation Yrotation
                          JOINT RightHandMiddle3
                          {
                            OFFSET -2.47579 0 0
                            CHANNELS 3 Zrotation Xrotation Yrotation
                            End Site
                            {
                              OFFSET -1.975 0 0
                            }
                          }
                        }
                      }
                    }
                    JOINT RightInHandRing
                    {
                      OFFSET -3.36516 0.537895 -0.128947
                      CHANNELS 3 Zrotation Xrotation Yrotation
                      JOINT RightHandRing1
                      {
                        OFFSET -4.63474 -0.022105 -0.478947
                        CHANNELS 3 Zrotation Xrotation Yrotation
                        JOINT RightHandRing2
                        {
                          OFFSET -3.44238 0 0
                          CHANNELS 3 Zrotation Xrotation Yrotation
                          JOINT RightHandRing3
                          {
                            OFFSET -2.3881 0 0
                            CHANNELS 3 Zrotation Xrotation Yrotation
                            End Site
                            {
                              OFFSET -1.857 0 0
                            }
                          }
                        }
                      }
                    }
                    JOINT RightInHandPinky
                    {
                      OFFSET -3.16105 0.469368 -1.20179
                      CHANNELS 3 Zrotation Xrotation Yrotation
                      JOINT RightHandPinky1
                      {
                        OFFSET -4.14105 -0.022105 -1.09053
                        CHANNELS 3 Zrotation Xrotation Yrotation
                        JOINT RightHandPinky2
                        {
                          OFFSET -2.75653 0 0
                          CHANNELS 3 Zrotation Xrotation Yrotation
                          JOINT RightHandPinky3
                          {
                            OFFSET -1.74189 0 0
                            CHANNELS 3 Zrotation Xrotation Yrotation
                            End Site
                            {
                              OFFSET -1.645 0 0
                            }
                          }
                        }
                      }
                    }
                  }
                }
              }
            }
            JOINT LeftShoulder
            {
              OFFSET 3.20588 6.97332 0.0254387
              CHANNELS 3 Zrotation Xrotation Yrotation
              JOINT LeftArm
              {
                OFFSET 12.8648 0.0341024 0.0247643
                CHANNELS 3 Zrotation Xrotation Yrotation
                JOINT LeftForeArm
                {
                  OFFSET 26.5059 -0.0470976 -0.0807017
                  CHANNELS 3 Zrotation Xrotation Yrotation
                  JOINT LeftHand
                  {
                    OFFSET 26.0013 -0.0100885 -0.0649647
                    CHANNELS 3 Zrotation Xrotation Yrotation
                    JOINT LeftHandThumb1
                    {
                      OFFSET 2.48905 0.190105 3.12053
                      CHANNELS 3 Zrotation Xrotation Yrotation
                      JOINT LeftHandThumb2
                      {
                        OFFSET 3.68274 0 0
                        CHANNELS 3 Zrotation Xrotation Yrotation
                        JOINT LeftHandThumb3
                        {
                          OFFSET 2.55832 0 0
                          CHANNELS 3 Zrotation Xrotation Yrotation
                          End Site
                          {
                            OFFSET 2.194 0 0
                          }
                        }
                      }
                    }
                    JOINT LeftInHandIndex
                    {
                      OFFSET 3.22368 0.508421 1.97842
                      CHANNELS 3 Zrotation Xrotation Yrotation
                      JOINT LeftHandIndex1
                      {
                        OFFSET 5.21684 -0.091368 0.999158
                        CHANNELS 3 Zrotation Xrotation Yrotation
                        JOINT LeftHandIndex2
                        {
                          OFFSET 3.61937 0 0
                          CHANNELS 3 Zrotation Xrotation Yrotation
                          JOINT LeftHandIndex3
                          {
                            OFFSET 2.0521 0 0
                            CHANNELS 3 Zrotation Xrotation Yrotation
                            End Site
                            {
                              OFFSET 1.805 0 0
                            }
                          }
                        }
                      }
                    }
                    JOINT LeftInHandMiddle
                    {
                      OFFSET 3.38211 0.517263 0.756737
                      CHANNELS 3 Zrotation Xrotation Yrotation
                      JOINT LeftHandMiddle1
                      {
                        OFFSET 5.17411 -0.084 0.313895
                        CHANNELS 3 Zrotation Xrotation Yrotation
                        JOINT LeftHandMiddle2
                        {
                          OFFSET 3.94947 0 0
                          CHANNELS 3 Zrotation Xrotation Yrotation
                          JOINT LeftHandMiddle3
                          {
                            OFFSET 2.47579 0 0
                            CHANNELS 3 Zrotation Xrotation Yrotation
                            End Site
                            {
                              OFFSET 1.975 0 0
                            }
                          }
                        }
                      }
                    }
                    JOINT LeftInHandRing
                    {
                      OFFSET 3.36516 0.537895 -0.128947
                      CHANNELS 3 Zrotation Xrotation Yrotation
                      JOINT LeftHandRing1
                      {
                        OFFSET 4.63474 -0.022105 -0.478947
                        CHANNELS 3 Zrotation Xrotation Yrotation
                        JOINT LeftHandRing2
                        {
                          OFFSET 3.44238 0 0
                          CHANNELS 3 Zrotation Xrotation Yrotation
                          JOINT LeftHandRing3
                          {
                            OFFSET 2.3881 0 0
                            CHANNELS 3 Zrotation Xrotation Yrotation
                            End Site
                            {
                              OFFSET 1.857 0 0
                            }
                          }
                        }
                      }
                    }
                    JOINT LeftInHandPinky
                    {
                      OFFSET 3.16105 0.469368 -1.20179
                      CHANNELS 3 Zrotation Xrotation Yrotation
                      JOINT LeftHandPinky1
                      {
                        OFFSET 4.14105 -0.022105 -1.09053
                        CHANNELS 3 Zrotation Xrotation Yrotation
                        JOINT LeftHandPinky2
                        {
                          OFFSET 2.75653 0 0
                          CHANNELS 3 Zrotation Xrotation Yrotation
                          JOINT LeftHandPinky3
                          {
                            OFFSET 1.74189 0 0
                            CHANNELS 3 Zrotation Xrotation Yrotation
                            End Site
                            {
                              OFFSET 1.645 0 0
                            }
                          }
                        }
                      }
                    }
                  }
                }
              }
            }
          }
        }
      }
    }
  }
}
MOTION
Frames: 2
Frame Time: 0.00833333
1.050000000000000000e+03 0.000000000000000000e+00 0.000000000000000000e+00 0.000000000000000000e+00 0.000000000000000000e+00 0.000000000000000000e+00 2.361048322129813570e+01 8.008713211777610752e+00 -7.989656436146361784e+01 8.868181166957729289e-01 -3.768085401122607436e+01 -2.323857033077246559e+00 -3.155738268192202156e+00 1.908654245735649724e+01 -7.680100622292453494e+00 7.501710028833537436e+00 4.394543575549374914e+00 2.915458845115883690e+01 2.233606260732457471e+01 -2.212756895482731068e+01 3.438312801662313234e+00 -1.495904835862356119e+00 2.324965107659308217e+01 -4.212897370568690292e+00 -1.024426839581681570e+01 -9.597118477204928055e+00 -4.948289056510470019e+00 -6.835620742142624273e+00 3.675816535053861855e+00 4.385140405484602155e+00 -1.607398088381227108e+00 9.224781753123328931e-01 1.115071004204955862e+00 -2.687342629737424993e+00 1.505746020694085585e+00 1.674597433368872235e+00 -2.997428545803503819e-01 -3.510563418796616153e-01 6.733038614614007544e-01 -5.260006469983838917e-01 -2.869412226655807974e+00 1.089454340980406499e+01 -4.740041980964250001e+00 3.346181261764678005e-01 5.759998788154671701e+00 4.680601718164123071e+00 -4.170749824592414612e+00 5.788236976877029427e+00 6.471603835668906868e+01 -2.385648179656534396e+01 3.542014184848899561e+01 2.515920094011992347e+01 -9.960648888905007325e+00 7.404231001162577286e+01 1.284529379363451085e+01 -2.723043960888380610e+01 2.219625093299925744e+00 2.818400000000000105e+01 1.072940000000000005e+01 1.915919999999999845e+01 1.543285012524122487e-14 -1.342277333933724598e-15 -1.000000000000000000e+01 2.036975274813990032e-15 -7.160789471681109372e-15 -1.000000000000000000e+01 -1.904952414760474890e-15 -2.019247645464160091e-15 -1.217745501155365621e-15 1.998179999999999978e+01 8.718970000000000331e-01 2.396399999999999864e+00 2.400000000000000000e+01 5.746398728572786821e-16 1.803307889409785725e-14 2.000000000000000000e+01 9.508678195541662716e-15 1.362058716405908185e-14 -1.904952414760474890e-15 -2.019247645464160091e-15 -1.217745501155365621e-15 2.000000000000000000e+01 3.955735912673652156e-15 6.223090322632737144e-15 2.400000000000000000e+01 -2.028326589560651599e-16 -2.765332636569087166e-15 2.000000000000000000e+01 -7.087945436329304743e-16 -4.077203844435957516e-15 -1.904952414760474890e-15 -2.019247645464160091e-15 -1.217745501155365621e-15 1.997479999999999833e+01 -1.025649999999999951e+00 -2.819380000000000219e+00 2.400000000000000000e+01 -3.433138967997226719e-15 -5.502565409490365713e-16 2.000000000000000000e+01 -1.842326559501371996e-15 -6.688715585451029207e-15 -1.904952414760474890e-15 -2.019247645464160091e-15 -1.217745501155365621e-15 1.978150000000000119e+01 -3.009479999999999933e+00 -8.305149999999999366e+00 2.400000000000000000e+01 1.078774388018883687e-16 -8.857730905995501739e-15 2.000000000000000000e+01 -1.297699394906044571e-15 -8.696583111798459324e-16 7.557709913048926254e+00 -1.403261045843200172e+01 -4.048290498774334623e+01 -3.050019935886439981e+01 3.044306384440436020e+01 -8.863217885836228049e+01 6.102957186945106471e+00 -2.302037518878117694e+01 -3.292115489917144089e+01 -3.085023305363329627e+01 -1.318292891536311018e+01 -9.612952796148480417e+00 -2.818400000000000105e+01 1.072940000000000005e+01 -1.915919999999999845e+01 -1.954448191429775254e-15 1.072918535386290863e-14 1.000000000000000000e+01 2.731501482781838348e-15 6.437810158587945638e-15 1.000000000000000000e+01 -3.080770019873015642e-15 -1.138654845229616297e-15 4.290982712639256893e-15 -1.998179999999999978e+01 8.718970000000000331e-01 -2.396399999999999864e+00 -2.400000000000000000e+01 2.878668455582717526e-15 2.646129251066449229e-15 -2.000000000000000000e+01 -2.163941803214830536e-15 8.081042388579055248e-15 -3.080770019873015642e-15 -1.138654845229616297e-15 4.290982712639256893e-15 -2.000000000000000000e+01 -1.065058211031032646e-15 -1.785346329089336980e-14 -2.400000000000000000e+01 5.516225483332147801e-15 4.837149494477965984e-16 -2.000000000000000000e+01 -1.102339510639512152e-15 7.793774644110042213e-15 -3.080770019873015642e-15 -1.138654845229616297e-15 4.290982712639256893e-15 -1.997479999999999833e+01 -1.025649999999999951e+00 2.819380000000000219e+00 -2.400000000000000000e+01 -5.271906352835367228e-15 -2.714837039294717620e-15 -2.000000000000000000e+01 -1.433929689728972506e-15 1.188403895312209918e-14 -3.080770019873015642e-15 -1.138654845229616297e-15 4.290982712639256893e-15 -1.978150000000000119e+01 -3.009479999999999933e+00 8.305149999999999366e+00 -2.400000000000000000e+01 8.426866298673629270e-15 -2.751546705701373188e-15 -2.000000000000000000e+01 8.767151063200724127e-16 1.827811131634578928e-14
1.050000000000000000e+03 0.000000000000000000e+00 0.000000000000000000e+00 0.000000000000000000e+00 0.000000000000000000e+00 0.000000000000000000e+00 2.351032033015505363e+01 8.086615609877600974e+00 -7.931952767320420605e+01 7.330122666036889001e-01 -3.735940412700123403e+01 -2.437296227820864747e+00 -3.148554669884450874e+00 1.898633239747891110e+01 -7.723620900011894719e+00 7.398990980467707423e+00 4.530046715334117735e+00 2.898925253102203925e+01 2.204403963743751405e+01 -2.217067601702182600e+01 3.209668108553571209e+00 -1.387885293112111729e+00 2.314731043704084001e+01 -4.348122825857890561e+00 -1.029496252365340681e+01 -9.529020563812295563e+00 -5.249724226721648179e+00 -6.805390725287385756e+00 3.670994083823321041e+00 4.547147578706066895e+00 -1.599320213741680652e+00 9.242073246612072523e-01 1.157852612040388474e+00 -2.674603743915313636e+00 1.510182494931582742e+00 1.739255049927036056e+00 -2.921078086932536455e-01 -3.500563926022193240e-01 6.507396606882364098e-01 -5.033725272739540957e-01 -2.869503854502187590e+00 1.064399770899272291e+01 -4.612826974397768787e+00 3.708975746394140849e-01 5.473744553891392250e+00 4.576142776713420623e+00 -4.253530651287738884e+00 5.888818814982784922e+00 6.454982536609533383e+01 -2.356663296109819683e+01 3.569953476021047578e+01 2.474875379597578728e+01 -9.815925492485618520e+00 7.378654277547556717e+01 1.291758337270545809e+01 -2.716074137113998077e+01 2.171164895677764051e+00 2.818400000000000105e+01 1.072940000000000005e+01 1.915919999999999845e+01 1.543774767082043277e-14 -1.341163390846742456e-15 -1.000000000000000000e+01 2.048446446351406920e-15 -7.156968729493842633e-15 -1.000000000000000000e+01 -1.889608976823212701e-15 -2.005966756009032700e-15 -1.224458679747374417e-15 1.998179999999999978e+01 8.718970000000000331e-01 2.396399999999999864e+00 2.400000000000000000e+01 5.864645009758239439e-16 1.803214033152057468e-14 2.000000000000000000e+01 9.514489263321036420e-15 1.364699369544852722e-14 -1.889608976823212701e-15 -2.005966756009032700e-15 -1.224458679747374417e-15 2.000000000000000000e+01 3.958205704022823861e-15 6.210435806835078966e-15 2.400000000000000000e+01 -1.992717259503831996e-16 -2.781212059760398990e-15 2.000000000000000000e+01 -7.032139955009739203e-16 -4.034532579853875385e-15 -1.889608976823212701e-15 -2.005966756009032700e-15 -1.224458679747374417e-15 1.997479999999999833e+01 -1.025649999999999951e+00 -2.819380000000000219e+00 2.400000000000000000e+01 -3.436672633910126151e-15 -5.615799104150082469e-16 2.000000000000000000e+01 -1.813689691215706195e-15 -6.643147338165284234e-15 -1.889608976823212701e-15 -2.005966756009032700e-15 -1.224458679747374417e-15 1.978150000000000119e+01 -3.009479999999999933e+00 -8.305149999999999366e+00 2.400000000000000000e+01 1.136400235373410015e-16 -8.862723899952821250e-15 2.000000000000000000e+01 -1.294187185285026634e-15 -8.383891589641104134e-16 7.474549784565403421e+00 -1.399759086674447950e+01 -4.035042618777615075e+01 -3.081293963189594010e+01 3.027447379488559065e+01 -8.830599007167074888e+01 5.810607371176073066e+00 -2.315656268682710106e+01 -3.358275625558283650e+01 -3.079472316521484743e+01 -1.315384569546207238e+01 -9.749583339498112622e+00 -2.818400000000000105e+01 1.072940000000000005e+01 -1.915919999999999845e+01 -1.953382707203402999e-15 1.074850894425222868e-14 1.000000000000000000e+01 2.729367138093066553e-15 6.445473020712261368e-15 1.000000000000000000e+01 -3.087875370310069314e-15 -1.138732252448144678e-15 4.293860679279448727e-15 -1.998179999999999978e+01 8.718970000000000331e-01 -2.396399999999999864e+00 -2.400000000000000000e+01 2.902268200145856489e-15 2.600663668840990244e-15 -2.000000000000000000e+01 -2.163337318459658615e-15 8.055455632280923610e-15 -3.087875370310069314e-15 -1.138732252448144678e-15 4.293860679279448727e-15 -2.000000000000000000e+01 -1.047075383305802965e-15 -1.794792195539880509e-14 -2.400000000000000000e+01 5.514390705192020506e-15 4.546286851707998184e-16 -2.000000000000000000e+01 -1.107248638967782452e-15 7.769546506558074481e-15 -3.087875370310069314e-15 -1.138732252448144678e-15 4.293860679279448727e-15 -1.997479999999999833e+01 -1.025649999999999951e+00 2.819380000000000219e+00 -2.400000000000000000e+01 -5.251796669057833120e-15 -2.769523155567985680e-15 -2.000000000000000000e+01 -1.430665265680183580e-15 1.185958430175958752e-14 -3.087875370310069314e-15 -1.138732252448144678e-15 4.293860679279448727e-15 -1.978150000000000119e+01 -3.009479999999999933e+00 8.305149999999999366e+00 -2.400000000000000000e+01 8.435623813500193686e-15 -2.782474650870136831e-15 -2.000000000000000000e+01 8.869783565465032009e-16 1.825834974085658916e-14
